<svg width="24" height="24" viewBox="0 0 24 24" fill="none" xmlns="http://www.w3.org/2000/svg">
<path d="M21.8675 11.8857C19.6931 7.30518 16.4062 5 12 5C7.59148 5 4.30689 7.30518 2.13245 11.888C2.04523 12.0727 2 12.2744 2 12.4786C2 12.6829 2.04523 12.8846 2.13245 13.0693C4.30689 17.6498 7.59378 19.955 12 19.955C16.4085 19.955 19.6931 17.6498 21.8675 13.067C22.0442 12.6954 22.0442 12.2642 21.8675 11.8857ZM12 18.3035C8.30024 18.3035 5.59137 16.4273 3.68071 12.4775C5.59137 8.52773 8.30024 6.65147 12 6.65147C15.6997 6.65147 18.4086 8.52773 20.3193 12.4775C18.4109 16.4273 15.702 18.3035 12 18.3035ZM11.9082 8.44057C9.67876 8.44057 7.87132 10.248 7.87132 12.4775C7.87132 14.707 9.67876 16.5144 11.9082 16.5144C14.1377 16.5144 15.9452 14.707 15.9452 12.4775C15.9452 10.248 14.1377 8.44057 11.9082 8.44057ZM11.9082 15.0465C10.4884 15.0465 9.33929 13.8973 9.33929 12.4775C9.33929 11.0577 10.4884 9.90854 11.9082 9.90854C13.3281 9.90854 14.4772 11.0577 14.4772 12.4775C14.4772 13.8973 13.3281 15.0465 11.9082 15.0465Z" fill="black"/>
</svg>
