<svg width="24" height="24" viewBox="0 0 24 24" fill="none" xmlns="http://www.w3.org/2000/svg">
<path d="M21.8675 11.3873C21.0612 9.6886 20.1017 8.3032 18.9889 7.23112L17.8219 8.39816C18.7735 9.30762 19.6025 10.4974 20.3193 11.9791C18.4109 15.9289 15.702 17.8051 12 17.8051C10.8888 17.8051 9.86523 17.634 8.9294 17.2918L7.66488 18.5563C8.96465 19.1565 10.4097 19.4566 12 19.4566C16.4085 19.4566 19.6977 17.1606 21.8675 12.5686C21.9548 12.3839 22 12.1822 22 11.978C22 11.7737 21.9548 11.572 21.8675 11.3873ZM20.4094 4.03277L19.4316 3.05382C19.4146 3.03676 19.3943 3.02322 19.372 3.01399C19.3498 3.00475 19.3259 3 19.3018 3C19.2777 3 19.2538 3.00475 19.2315 3.01399C19.2092 3.02322 19.189 3.03676 19.172 3.05382L16.6633 5.5613C15.2802 4.85484 13.7258 4.50161 12 4.50161C7.59148 4.50161 4.3023 6.79761 2.13245 11.3896C2.04523 11.5743 2 11.776 2 11.9802C2 12.1845 2.04523 12.3862 2.13245 12.5709C2.99932 14.3967 4.04296 15.8601 5.26336 16.9613L2.83616 19.3878C2.80177 19.4222 2.78246 19.4688 2.78246 19.5175C2.78246 19.5661 2.80177 19.6128 2.83616 19.6472L3.81535 20.6264C3.84975 20.6608 3.89641 20.6801 3.94505 20.6801C3.9937 20.6801 4.04035 20.6608 4.07476 20.6264L20.4094 4.29242C20.4265 4.27538 20.44 4.25514 20.4492 4.23286C20.4585 4.21059 20.4632 4.18671 20.4632 4.1626C20.4632 4.13848 20.4585 4.1146 20.4492 4.09233C20.44 4.07005 20.4265 4.04981 20.4094 4.03277ZM3.6807 11.9791C5.59136 8.02933 8.30023 6.15308 12 6.15308C13.251 6.15308 14.3884 6.36777 15.4204 6.80426L13.8079 8.41674C13.0442 8.00929 12.1699 7.85808 11.3137 7.9854C10.4576 8.11272 9.66505 8.51184 9.05301 9.12387C8.44098 9.73591 8.04186 10.5284 7.91454 11.3846C7.78722 12.2407 7.93843 13.1151 8.34588 13.8787L6.43247 15.7922C5.37346 14.8575 4.46057 13.5911 3.6807 11.9791ZM9.33928 11.9791C9.33969 11.5746 9.43549 11.176 9.61891 10.8155C9.80234 10.455 10.0682 10.1429 10.3949 9.90446C10.7216 9.66604 11.1 9.50804 11.4992 9.44332C11.8985 9.37859 12.3074 9.40895 12.6927 9.53194L9.46108 12.7635C9.38008 12.51 9.33899 12.2453 9.33928 11.9791Z" fill="black"/>
<path d="M11.9086 14.5527C11.8292 14.5527 11.751 14.549 11.6735 14.5419L10.4619 15.7535C11.1906 16.0325 11.9845 16.0945 12.7477 15.932C13.5109 15.7695 14.2107 15.3894 14.7624 14.8376C15.3142 14.2859 15.6943 13.5861 15.8568 12.8229C16.0193 12.0597 15.9573 11.2658 15.6783 10.5371L14.4667 11.7486C14.4738 11.8262 14.4775 11.9044 14.4775 11.9838C14.4777 12.3212 14.4114 12.6553 14.2823 12.9671C14.1533 13.2788 13.9641 13.5621 13.7255 13.8007C13.4869 14.0393 13.2036 14.2285 12.8919 14.3575C12.5801 14.4866 12.246 14.5529 11.9086 14.5527Z" fill="black"/>
</svg>
