<svg width="12" height="12" viewBox="0 0 12 12" fill="none" xmlns="http://www.w3.org/2000/svg">
<path d="M6.78788 6L11.6192 0.241104C11.7001 0.145399 11.632 0 11.5069 0H10.0382C9.95168 0 9.86886 0.0386502 9.8118 0.104908L5.82714 4.85521L1.84248 0.104908C1.78726 0.0386502 1.70444 0 1.6161 0H0.147387C0.0222334 0 -0.0458648 0.145399 0.0351167 0.241104L4.8664 6L0.0351167 11.7589C0.0169761 11.7802 0.00533822 11.8063 0.0015843 11.8341C-0.00216963 11.8618 0.00211809 11.8901 0.0139389 11.9154C0.0257596 11.9408 0.0446169 11.9623 0.0682715 11.9773C0.091926 11.9923 0.119384 12.0002 0.147387 12H1.6161C1.7026 12 1.78542 11.9613 1.84248 11.8951L5.82714 7.14478L9.8118 11.8951C9.86702 11.9613 9.94984 12 10.0382 12H11.5069C11.632 12 11.7001 11.8546 11.6192 11.7589L6.78788 6Z" fill="#676E76"/>
</svg>
